<?xml version="1.0" encoding="UTF-8"?><svg xmlns="http://www.w3.org/2000/svg" xmlns:xlink="http://www.w3.org/1999/xlink" fill-opacity="1" color-rendering="auto" color-interpolation="auto" stroke="black" text-rendering="auto" stroke-linecap="square" width="676" stroke-miterlimit="10" stroke-opacity="1" shape-rendering="auto" fill="black" stroke-dasharray="none" font-weight="normal" stroke-width="1" height="445" font-family="'Dialog'" font-style="normal" stroke-linejoin="miter" font-size="12" stroke-dashoffset="0" image-rendering="auto">
  <!--Generated by ySVG-->
  <defs id="genericDefs"/>
  <g>
    <defs id="defs1">
      <clipPath clipPathUnits="userSpaceOnUse" id="clipPath1">
        <path d="M0 0 L676 0 L676 445 L0 445 L0 0 Z"/>
      </clipPath>
      <clipPath clipPathUnits="userSpaceOnUse" id="clipPath2">
        <path d="M114 128 L790 128 L790 573 L114 573 L114 128 Z"/>
      </clipPath>
    </defs>
    <g fill="white" transform="translate(-114,-128)" stroke="white">
      <rect x="114" width="676" height="445" y="128" clip-path="url(#clipPath2)" stroke="none"/>
    </g>
    <g fill="rgb(153,204,255)" transform="matrix(1,0,0,1,-114,-128)" stroke="rgb(153,204,255)">
      <rect x="548" y="386" clip-path="url(#clipPath2)" width="183" rx="4" ry="4" height="113" stroke="none"/>
    </g>
    <g stroke-miterlimit="1.45" font-family="sans-serif" transform="matrix(1,0,0,1,-114,-128)" stroke-linecap="butt">
      <text x="597.2656" xml:space="preserve" y="403.1387" clip-path="url(#clipPath2)" stroke="none">Jenkins server</text>
      <rect x="548" y="386" clip-path="url(#clipPath2)" fill="none" width="183" rx="4" ry="4" height="113"/>
    </g>
    <g fill="rgb(153,204,255)" transform="matrix(1,0,0,1,-114,-128)" stroke="rgb(153,204,255)">
      <rect x="362" y="143" clip-path="url(#clipPath2)" width="183" rx="4" ry="4" height="113" stroke="none"/>
    </g>
    <g stroke-linecap="butt" transform="matrix(1,0,0,1,-114,-128)" stroke-miterlimit="1.45">
      <rect x="362" y="143" clip-path="url(#clipPath2)" fill="none" width="183" rx="4" ry="4" height="113"/>
    </g>
    <g fill="rgb(255,204,0)" transform="matrix(1,0,0,1,-114,-128)" stroke="rgb(255,204,0)">
      <rect x="389.5" width="128" height="71" y="174.5" clip-path="url(#clipPath2)" stroke="none"/>
    </g>
    <g stroke-miterlimit="1.45" font-family="sans-serif" transform="matrix(1,0,0,1,-114,-128)" stroke-linecap="butt">
      <text x="406.959" xml:space="preserve" y="207.1699" clip-path="url(#clipPath2)" stroke="none">Company Truth</text>
      <text x="421.3262" xml:space="preserve" y="221.1387" clip-path="url(#clipPath2)" stroke="none">Repository</text>
      <rect fill="none" x="389.5" width="128" height="71" y="174.5" clip-path="url(#clipPath2)"/>
    </g>
    <g fill="rgb(255,204,0)" transform="matrix(1,0,0,1,-114,-128)" stroke="rgb(255,204,0)">
      <rect x="575.5" width="128" height="71" y="421.5" clip-path="url(#clipPath2)" stroke="none"/>
    </g>
    <g stroke-miterlimit="1.45" font-family="sans-serif" transform="matrix(1,0,0,1,-114,-128)" stroke-linecap="butt">
      <text x="593.0293" xml:space="preserve" y="454.1699" clip-path="url(#clipPath2)" stroke="none">Jenkins Internal</text>
      <text x="607.3262" xml:space="preserve" y="468.1387" clip-path="url(#clipPath2)" stroke="none">Repository</text>
      <rect fill="none" x="575.5" width="128" height="71" y="421.5" clip-path="url(#clipPath2)"/>
    </g>
    <g fill="rgb(255,204,0)" transform="matrix(1,0,0,1,-114,-128)" stroke="rgb(255,204,0)">
      <circle r="51" clip-path="url(#clipPath2)" cx="258" cy="483" stroke="none"/>
    </g>
    <g stroke-miterlimit="1.45" font-family="sans-serif" transform="matrix(1,0,0,1,-114,-128)" stroke-linecap="butt">
      <text x="240.6299" xml:space="preserve" y="480.1699" clip-path="url(#clipPath2)" stroke="none">Client</text>
      <text x="225.8262" xml:space="preserve" y="494.1387" clip-path="url(#clipPath2)" stroke="none">Repository</text>
      <circle fill="none" r="51" clip-path="url(#clipPath2)" cx="258" cy="483"/>
      <text x="666.9922" xml:space="preserve" y="319.2012" clip-path="url(#clipPath2)" stroke="none">Jenkins updates</text>
      <text x="670.1621" xml:space="preserve" y="333.1699" clip-path="url(#clipPath2)" stroke="none">company truth</text>
      <text x="674.0674" xml:space="preserve" y="347.1387" clip-path="url(#clipPath2)" stroke="none">on successful</text>
      <text x="681.541" xml:space="preserve" y="361.1074" clip-path="url(#clipPath2)" stroke="none">integration</text>
      <rect x="654.5" y="304" clip-path="url(#clipPath2)" fill="none" width="120" stroke-dasharray="6,2" height="64"/>
      <text x="356.9668" xml:space="preserve" y="520.6855" clip-path="url(#clipPath2)" stroke="none">Users push changesets</text>
      <text x="387.0781" xml:space="preserve" y="534.6543" clip-path="url(#clipPath2)" stroke="none">to Jenkins for</text>
      <text x="364.9443" xml:space="preserve" y="548.623" clip-path="url(#clipPath2)" stroke="none">potential integration</text>
      <rect x="349.5" y="503" clip-path="url(#clipPath2)" fill="none" width="154" stroke-dasharray="6,2" height="55"/>
      <text x="147.8896" xml:space="preserve" y="227.2168" clip-path="url(#clipPath2)" stroke="none">The Company</text>
      <text x="150.8984" xml:space="preserve" y="241.1855" clip-path="url(#clipPath2)" stroke="none">Truth always</text>
      <text x="151.6924" xml:space="preserve" y="255.1543" clip-path="url(#clipPath2)" stroke="none">represents a</text>
      <text x="141.2129" xml:space="preserve" y="269.123" clip-path="url(#clipPath2)" stroke="none">pristine working</text>
      <text x="175.1709" xml:space="preserve" y="283.0918" clip-path="url(#clipPath2)" stroke="none">copy</text>
      <rect x="129.5" y="210" clip-path="url(#clipPath2)" fill="none" width="120" stroke-dasharray="6,2" height="82"/>
      <text x="496.1543" xml:space="preserve" y="319.2012" clip-path="url(#clipPath2)" stroke="none">Jenkins always</text>
      <text x="494.7275" xml:space="preserve" y="333.1699" clip-path="url(#clipPath2)" stroke="none">integrates with</text>
      <text x="511.3799" xml:space="preserve" y="347.1387" clip-path="url(#clipPath2)" stroke="none">the latest</text>
      <text x="483.0439" xml:space="preserve" y="361.1074" clip-path="url(#clipPath2)" stroke="none">working changeset</text>
      <rect x="476" y="304" clip-path="url(#clipPath2)" fill="none" width="128" stroke-dasharray="6,2" height="64"/>
    </g>
    <g fill="green" stroke-width="2" stroke-miterlimit="1.45" transform="matrix(1,0,0,1,-114,-128)" stroke-linecap="butt" stroke="green">
      <path fill="none" d="M639.5 385.9927 L639.5 210 L526.5 210" clip-path="url(#clipPath2)"/>
      <path d="M517.5 210 L531 215.625 L527.625 210 L531 204.375 Z" clip-path="url(#clipPath2)" stroke="none"/>
    </g>
    <g stroke-miterlimit="1.45" font-family="sans-serif" transform="matrix(1,0,0,1,-114,-128)" stroke-linecap="butt">
      <text x="655.1504" xml:space="preserve" y="295.1621" clip-path="url(#clipPath2)" stroke="none">Push</text>
    </g>
    <g fill="green" stroke-width="2" stroke-miterlimit="1.45" transform="matrix(1,0,0,1,-114,-128)" stroke-linecap="butt" stroke="green">
      <path fill="none" d="M517.4868 230 L618 230 L618 376.9619" clip-path="url(#clipPath2)"/>
      <path d="M618 385.9619 L623.625 372.4619 L618 375.8369 L612.375 372.4619 Z" clip-path="url(#clipPath2)" stroke="none"/>
    </g>
    <g stroke-miterlimit="1.45" font-family="sans-serif" transform="matrix(1,0,0,1,-114,-128)" stroke-linecap="butt">
      <text x="578.2451" xml:space="preserve" y="296.1543" clip-path="url(#clipPath2)" stroke="none">Pull</text>
    </g>
    <g fill="green" stroke-width="2" stroke-miterlimit="1.45" transform="matrix(1,0,0,1,-114,-128)" stroke-linecap="butt" stroke="green">
      <path fill="none" d="M389.5 210 L258 210 L258 423" clip-path="url(#clipPath2)"/>
      <path d="M258 432 L263.625 418.5 L258 421.875 L252.375 418.5 Z" clip-path="url(#clipPath2)" stroke="none"/>
    </g>
    <g stroke-miterlimit="1.45" font-family="sans-serif" transform="matrix(1,0,0,1,-114,-128)" stroke-linecap="butt">
      <text x="266.2451" xml:space="preserve" y="230.1543" clip-path="url(#clipPath2)" stroke="none">Pull</text>
    </g>
    <g fill="red" stroke-dasharray="6,2" stroke-miterlimit="1.45" transform="matrix(1,0,0,1,-114,-128)" stroke-linecap="butt" stroke="red">
      <path fill="none" d="M525 457 L309.882 457" clip-path="url(#clipPath2)"/>
      <path d="M301.882 457 L313.882 462 L310.882 457 L313.882 452 Z" clip-path="url(#clipPath2)" stroke="none"/>
    </g>
    <g stroke-miterlimit="1.45" font-family="sans-serif" transform="matrix(1,0,0,1,-114,-128)" stroke-linecap="butt">
      <text x="410.2451" xml:space="preserve" y="433.1699" clip-path="url(#clipPath2)" stroke="none">Pull</text>
      <text x="398.3711" xml:space="preserve" y="447.1387" clip-path="url(#clipPath2)" stroke="none">(Illegal)</text>
    </g>
    <g fill="green" stroke-width="2" stroke-miterlimit="1.45" transform="matrix(1,0,0,1,-114,-128)" stroke-linecap="butt" stroke="green">
      <path fill="none" d="M309 483 L566.4922 483" clip-path="url(#clipPath2)"/>
      <path d="M575.4922 483 L561.9922 477.375 L565.3672 483 L561.9922 488.625 Z" clip-path="url(#clipPath2)" stroke="none"/>
    </g>
    <g stroke-miterlimit="1.45" font-family="sans-serif" transform="matrix(1,0,0,1,-114,-128)" stroke-linecap="butt">
      <text x="410.6504" xml:space="preserve" y="500.1543" clip-path="url(#clipPath2)" stroke="none">Push</text>
    </g>
    <g fill="red" stroke-dasharray="6,2" stroke-miterlimit="1.45" transform="matrix(1,0,0,1,-114,-128)" stroke-linecap="butt" stroke="red">
      <path fill="none" d="M281.1279 437.5537 L302 421 L302 298 L336.4687 273.6197" clip-path="url(#clipPath2)"/>
      <path d="M343 269 L330.3157 271.8475 L335.6523 274.1972 L336.0904 280.0117 Z" clip-path="url(#clipPath2)" stroke="none"/>
    </g>
    <g stroke-miterlimit="1.45" font-family="sans-serif" transform="matrix(1,0,0,1,-114,-128)" stroke-linecap="butt">
      <text x="321.6504" xml:space="preserve" y="359.1699" clip-path="url(#clipPath2)" stroke="none">Push</text>
      <text x="313.3711" xml:space="preserve" y="373.1387" clip-path="url(#clipPath2)" stroke="none">(Illegal)</text>
    </g>
  </g>
</svg>
