<?xml version="1.0" encoding="utf-8"?>
<!-- Generator: Adobe Illustrator 22.1.0, SVG Export Plug-In . SVG Version: 6.00 Build 0)  -->
<svg version="1.1" id="Layer_1" xmlns="http://www.w3.org/2000/svg" xmlns:xlink="http://www.w3.org/1999/xlink" x="0px" y="0px"
	 viewBox="0 0 415.455 109.689" style="enable-background:new 0 0 415.455 109.689;" xml:space="preserve">
<style type="text/css">
	.st0{fill:#FFFFFF;}
	.st1{fill:#FCDC00;}
	.st2{fill:#05263A;}
	.st3{fill:#2C282C;}
	.st4{fill:#07CED6;}
	.st5{fill:#63DB2A;}
	.st6{fill:#F4CF14;}
	.st7{fill:#50E4EA;}
	.st8{fill:#04AADB;}
	.st9{fill:#85EA2D;}
	.st10{fill:#FF730B;}
	.st11{fill:#17D1FC;}
	.st12{fill:#00AADB;}
	.st13{fill:none;}
</style>
<g>
	<g>
		<path class="st2" d="M23.6,92.371h-5.645V48.842H2.582v-5.014h36.391v5.014H23.6V92.371z"/>
		<path class="st2" d="M53.667,93.036c-5.379,0-9.624-1.638-12.733-4.914c-3.11-3.276-4.665-7.825-4.665-13.646
			c0-5.866,1.444-10.525,4.333-13.979s6.768-5.18,11.638-5.18c4.56,0,8.168,1.5,10.824,4.499c2.656,3,3.984,6.956,3.984,11.87v3.486
			H41.98c0.11,4.272,1.189,7.515,3.237,9.729c2.047,2.214,4.931,3.32,8.649,3.32c3.918,0,7.791-0.819,11.621-2.457v4.914
			c-1.948,0.841-3.791,1.444-5.528,1.81C58.221,92.853,56.124,93.036,53.667,93.036z M52.173,59.932
			c-2.922,0-5.252,0.952-6.989,2.855c-1.738,1.904-2.762,4.538-3.071,7.902h19.025c0-3.475-0.775-6.137-2.324-7.985
			C57.264,60.856,55.05,59.932,52.173,59.932z"/>
		<path class="st2" d="M98.675,82.444c0,3.387-1.262,5.999-3.785,7.836c-2.523,1.837-6.066,2.756-10.625,2.756
			c-4.826,0-8.589-0.764-11.289-2.291v-5.113c1.748,0.886,3.624,1.583,5.627,2.092c2.004,0.509,3.936,0.764,5.795,0.764
			c2.877,0,5.09-0.459,6.641-1.378c1.549-0.918,2.324-2.318,2.324-4.2c0-1.417-0.615-2.628-1.844-3.636
			c-1.229-1.007-3.625-2.197-7.188-3.569c-3.387-1.262-5.795-2.363-7.222-3.304c-1.428-0.94-2.49-2.009-3.188-3.204
			s-1.046-2.623-1.046-4.283c0-2.966,1.206-5.307,3.619-7.022c2.412-1.715,5.721-2.573,9.928-2.573
			c3.918,0,7.746,0.797,11.488,2.391l-1.959,4.482c-3.652-1.505-6.963-2.258-9.928-2.258c-2.613,0-4.582,0.41-5.91,1.229
			c-1.328,0.819-1.992,1.948-1.992,3.387c0,0.974,0.248,1.804,0.746,2.49c0.498,0.687,1.301,1.339,2.408,1.959
			c1.105,0.62,3.23,1.517,6.375,2.689c4.316,1.572,7.232,3.154,8.748,4.748S98.675,80.031,98.675,82.444z"/>
		<path class="st2" d="M119.522,88.487c0.974,0,1.914-0.072,2.822-0.216c0.907-0.144,1.627-0.293,2.158-0.448v4.217
			c-0.598,0.288-1.478,0.525-2.64,0.714c-1.162,0.188-2.208,0.282-3.138,0.282c-7.039,0-10.559-3.708-10.559-11.123V60.264h-5.213
			v-2.656l5.213-2.291l2.324-7.77h3.188v8.434h10.559v4.283h-10.559V81.68c0,2.191,0.52,3.874,1.561,5.047
			C116.279,87.9,117.707,88.487,119.522,88.487z"/>
		<path class="st2" d="M152.818,48.178c-5.335,0-9.546,1.776-12.634,5.329s-4.632,8.417-4.632,14.593
			c0,6.353,1.488,11.262,4.466,14.726c2.977,3.464,7.222,5.196,12.733,5.196c3.387,0,7.249-0.608,11.588-1.826v4.947
			c-3.365,1.262-7.516,1.893-12.451,1.893c-7.15,0-12.667-2.169-16.552-6.508c-3.885-4.338-5.827-10.503-5.827-18.494
			c0-5.002,0.935-9.385,2.806-13.148c1.87-3.763,4.57-6.663,8.102-8.699c3.53-2.036,7.687-3.055,12.468-3.055
			c5.091,0,9.54,0.93,13.348,2.789l-2.391,4.848C160.167,49.041,156.492,48.178,152.818,48.178z"/>
		<path class="st2" d="M202.982,74.143c0,5.933-1.494,10.564-4.482,13.896c-2.988,3.332-7.117,4.997-12.385,4.997
			c-3.254,0-6.143-0.764-8.666-2.291s-4.472-3.719-5.844-6.574c-1.373-2.855-2.059-6.198-2.059-10.027
			c0-5.932,1.482-10.553,4.449-13.862c2.966-3.309,7.083-4.964,12.352-4.964c5.091,0,9.136,1.693,12.136,5.08
			C201.482,63.784,202.982,68.366,202.982,74.143z M175.258,74.143c0,4.648,0.93,8.19,2.789,10.625
			c1.859,2.435,4.593,3.652,8.201,3.652c3.607,0,6.347-1.212,8.218-3.636c1.87-2.424,2.806-5.971,2.806-10.642
			c0-4.626-0.936-8.14-2.806-10.542c-1.871-2.401-4.632-3.603-8.284-3.603c-3.608,0-6.331,1.185-8.168,3.553
			C176.176,65.92,175.258,69.451,175.258,74.143z"/>
		<path class="st2" d="M257.403,92.371V68.698c0-2.899-0.62-5.074-1.859-6.524c-1.24-1.45-3.166-2.175-5.777-2.175
			c-3.432,0-5.966,0.985-7.604,2.955c-1.639,1.97-2.457,5.003-2.457,9.098v20.32h-5.512V68.698c0-2.899-0.62-5.074-1.859-6.524
			c-1.24-1.45-3.177-2.175-5.811-2.175c-3.453,0-5.982,1.035-7.587,3.104c-1.605,2.07-2.407,5.462-2.407,10.177v19.092h-5.512
			V55.981h4.482l0.896,4.98h0.266c1.04-1.771,2.507-3.154,4.399-4.15s4.012-1.494,6.358-1.494c5.688,0,9.407,2.059,11.156,6.176
			h0.266c1.084-1.903,2.656-3.409,4.715-4.516c2.059-1.106,4.404-1.66,7.039-1.66c4.117,0,7.199,1.057,9.247,3.171
			c2.047,2.114,3.071,5.495,3.071,10.144v23.74H257.403z"/>
		<path class="st2" d="M289.457,93.036c-2.369,0-4.532-0.438-6.491-1.312s-3.603-2.219-4.931-4.034h-0.398
			c0.266,2.125,0.398,4.14,0.398,6.043v14.975h-5.512V55.981h4.482l0.764,4.98h0.266c1.416-1.992,3.065-3.431,4.947-4.316
			c1.881-0.885,4.039-1.328,6.475-1.328c4.825,0,8.55,1.649,11.173,4.947c2.623,3.298,3.935,7.925,3.935,13.879
			c0,5.977-1.334,10.62-4.001,13.929C297.896,91.381,294.193,93.036,289.457,93.036z M288.66,59.998
			c-3.719,0-6.408,1.029-8.068,3.088c-1.66,2.059-2.513,5.335-2.557,9.828v1.229c0,5.113,0.852,8.771,2.557,10.974
			c1.704,2.203,4.438,3.304,8.201,3.304c3.143,0,5.605-1.272,7.388-3.818c1.781-2.545,2.673-6.054,2.673-10.525
			c0-4.538-0.892-8.019-2.673-10.442C294.398,61.21,291.892,59.998,288.66,59.998z"/>
		<path class="st2" d="M318.195,92.371h-5.512V40.707h5.512V92.371z"/>
		<path class="st2" d="M343.665,93.036c-5.379,0-9.624-1.638-12.733-4.914c-3.11-3.276-4.665-7.825-4.665-13.646
			c0-5.866,1.444-10.525,4.333-13.979s6.768-5.18,11.638-5.18c4.56,0,8.168,1.5,10.824,4.499c2.656,3,3.984,6.956,3.984,11.87v3.486
			h-25.068c0.11,4.272,1.189,7.515,3.237,9.729c2.047,2.214,4.931,3.32,8.649,3.32c3.918,0,7.791-0.819,11.621-2.457v4.914
			c-1.948,0.841-3.791,1.444-5.528,1.81C348.219,92.853,346.122,93.036,343.665,93.036z M342.171,59.932
			c-2.922,0-5.252,0.952-6.989,2.855c-1.738,1.904-2.762,4.538-3.071,7.902h19.025c0-3.475-0.775-6.137-2.324-7.985
			C347.262,60.856,345.048,59.932,342.171,59.932z"/>
		<path class="st2" d="M376.917,88.487c0.974,0,1.914-0.072,2.822-0.216c0.907-0.144,1.627-0.293,2.158-0.448v4.217
			c-0.598,0.288-1.478,0.525-2.64,0.714c-1.162,0.188-2.208,0.282-3.138,0.282c-7.039,0-10.559-3.708-10.559-11.123V60.264h-5.213
			v-2.656l5.213-2.291l2.324-7.77h3.188v8.434h10.559v4.283h-10.559V81.68c0,2.191,0.52,3.874,1.561,5.047
			C373.674,87.9,375.102,88.487,376.917,88.487z"/>
		<path class="st2" d="M402.557,93.036c-5.379,0-9.624-1.638-12.733-4.914c-3.11-3.276-4.665-7.825-4.665-13.646
			c0-5.866,1.444-10.525,4.333-13.979s6.768-5.18,11.638-5.18c4.56,0,8.168,1.5,10.824,4.499c2.656,3,3.984,6.956,3.984,11.87v3.486
			h-25.068c0.11,4.272,1.189,7.515,3.237,9.729c2.047,2.214,4.931,3.32,8.649,3.32c3.918,0,7.791-0.819,11.621-2.457v4.914
			c-1.948,0.841-3.791,1.444-5.528,1.81C407.11,92.853,405.014,93.036,402.557,93.036z M401.063,59.932
			c-2.922,0-5.252,0.952-6.989,2.855c-1.738,1.904-2.762,4.538-3.071,7.902h19.025c0-3.475-0.775-6.137-2.324-7.985
			C406.153,60.856,403.939,59.932,401.063,59.932z"/>
	</g>
</g>
<g>
	<g>
		<g>
			<g>
				<path class="st4" d="M69.084,13.782c0,0-3.266-0.373-4.619-0.373c-1.96,0-2.963,0.7-2.963,2.076c0,1.493,0.84,1.843,3.569,2.589
					c3.359,0.933,4.572,1.82,4.572,4.549c0,3.499-2.192,5.015-5.342,5.015c-2.076,0-5.225-0.63-5.225-0.63l0.257-2.076
					c0,0,3.149,0.42,4.805,0.42c1.982,0,2.892-0.887,2.892-2.566c0-1.353-0.723-1.82-3.173-2.403
					c-3.452-0.886-4.945-1.936-4.945-4.712c0-3.219,2.123-4.549,5.319-4.549c2.029,0,5.062,0.559,5.062,0.559L69.084,13.782z"/>
				<path class="st4" d="M75.854,11.403h4.503l3.569,12.48l3.569-12.48h4.525v15.979h-2.613v-13.81h-0.137l-3.991,13.157h-2.706
					l-3.992-13.157h-0.138v13.81h-2.589V11.403z"/>
				<path class="st4" d="M132.125,11.403h11.663v2.309h-4.502v13.67h-2.613v-13.67h-4.549V11.403z"/>
				<path class="st4" d="M155.056,11.403c3.173,0,4.875,1.189,4.875,4.152c0,1.936-0.606,2.892-1.889,3.592
					c1.376,0.536,2.286,1.516,2.286,3.709c0,3.266-1.982,4.526-5.085,4.526h-6.252V11.403H155.056z M151.58,13.642v4.573h3.429
					c1.587,0,2.286-0.793,2.286-2.357c0-1.539-0.793-2.216-2.379-2.216H151.58z M151.58,20.408v4.736h3.523
					c1.609,0,2.566-0.513,2.566-2.427c0-1.82-1.353-2.309-2.613-2.309H151.58z"/>
				<path class="st4" d="M166.747,11.403h10.078v2.263h-7.489v4.525h6.089v2.217h-6.089v4.689h7.489v2.286h-10.078V11.403z"/>
				<path class="st4" d="M186.11,11.403h5.155l3.966,15.979h-2.613l-1.18-4.689h-5.502l-1.18,4.689h-2.589L186.11,11.403z
					 M186.454,20.408h4.483l-1.654-6.835h-1.166L186.454,20.408z"/>
				<path class="st4" d="M203.584,22.647v4.736h-2.589V11.403h6.066c3.522,0,5.412,2.018,5.412,5.563
					c0,2.263-0.91,4.304-2.613,5.097l2.636,5.319h-2.846l-2.31-4.736H203.584z M207.06,13.642h-3.476v6.766h3.523
					c1.959,0,2.706-1.761,2.706-3.417C209.812,15.17,208.926,13.642,207.06,13.642z"/>
				<path class="st4" d="M101.61,11.403h5.155l3.966,15.979h-2.613l-1.18-4.689h-5.502l-1.18,4.689h-2.589L101.61,11.403z
					 M101.954,20.408h4.483l-1.654-6.835h-1.166L101.954,20.408z"/>
				<path class="st4" d="M119.083,22.647v4.736h-2.589V11.403h6.066c3.522,0,5.412,2.018,5.412,5.563
					c0,2.263-0.91,4.304-2.613,5.097l2.636,5.319h-2.846l-2.31-4.736H119.083z M122.559,13.642h-3.476v6.766h3.523
					c1.959,0,2.705-1.761,2.705-3.417C125.312,15.17,124.426,13.642,122.559,13.642z"/>
			</g>
			<path class="st4" d="M30.943,24.22h-7.409l-1.314,4.048h10.038L30.943,24.22z M50.812,28.268l-3.887-11.962l2.511-7.727
				l-9.336-6.784l-6.576,4.779h-12.57l-6.576-4.779L5.041,8.58l2.511,7.727L3.665,28.268h12.263l-0.953-2.934l12.264-8.91
				l12.263,8.91l-0.953,2.934H50.812z"/>
		</g>
	</g>
</g>
</svg>
