<?xml version="1.0" encoding="utf-8"?>
<!-- Generator: Adobe Illustrator 20.1.0, SVG Export Plug-In . SVG Version: 6.00 Build 0)  -->
<!DOCTYPE svg PUBLIC "-//W3C//DTD SVG 1.1//EN" "http://www.w3.org/Graphics/SVG/1.1/DTD/svg11.dtd" [
	<!ENTITY st0 "fill:#FFFFFF;">
	<!ENTITY st1 "fill:none;stroke:#FFFFFF;stroke-width:0.5;stroke-miterlimit:10;">
	<!ENTITY st2 "fill:#EE7203;">
	<!ENTITY st3 "fill:#575756;">
]>
<svg version="1.1" id="Layer_1" xmlns="http://www.w3.org/2000/svg" xmlns:xlink="http://www.w3.org/1999/xlink" x="0px" y="0px"
	 viewBox="0 0 445.6 87.8" style="enable-background:new 0 0 445.6 87.8;" xml:space="preserve">
<path style="&st0;" d="M87.6,43.9C87.6,68,68,87.6,43.9,87.6C19.8,87.6,0.2,68,0.2,43.9S19.8,0.3,43.9,0.3
	C68,0.3,87.6,19.8,87.6,43.9"/>
<path style="&st1;" d="M87.6,43.9C87.6,68,68,87.6,43.9,87.6C19.8,87.6,0.2,68,0.2,43.9S19.8,0.3,43.9,0.3
	C68,0.3,87.6,19.8,87.6,43.9"/>
<path style="&st2;" d="M61.9,58.8c1.6,0.6,3.4,0.6,5-0.1c1.6-0.7,2.8-1.9,3.5-3.5c0.6-1.6,0.6-3.4-0.1-5c-0.7-1.6-1.9-2.8-3.5-3.5
	c-0.8-0.3-1.6-0.5-2.4-0.5c-0.9,0-1.7,0.2-2.6,0.5c-1.6,0.7-2.8,1.9-3.5,3.5h0c-0.6,1.6-0.6,3.4,0.1,5C59,56.9,60.3,58.1,61.9,58.8"
	/>
<path style="&st1;" d="M61.9,58.8c1.6,0.6,3.4,0.6,5-0.1c1.6-0.7,2.8-1.9,3.5-3.5c0.6-1.6,0.6-3.4-0.1-5c-0.7-1.6-1.9-2.8-3.5-3.5
	c-0.8-0.3-1.6-0.5-2.4-0.5c-0.9,0-1.7,0.2-2.6,0.5c-1.6,0.7-2.8,1.9-3.5,3.5h0c-0.6,1.6-0.6,3.4,0.1,5C59,56.9,60.3,58.1,61.9,58.8"
	/>
<path style="&st2;" d="M76.4,14.7L31.7,33.9c0.6,1.8,0.5,3.7-0.2,5.5c-0.8,2-2.3,3.6-4.3,4.4c-1,0.4-2.1,0.7-3.2,0.7
	c-1,0-2-0.2-3-0.6c-2-0.8-3.6-2.3-4.4-4.3c-0.9-2-0.9-4.2-0.1-6.2c0.8-2,2.3-3.6,4.3-4.4c2-0.9,4.2-0.9,6.2-0.1
	c1.8,0.7,3.2,2,4.1,3.6l44.1-19C71.1,9.2,66,5.7,60.1,3.4c-22.4-8.9-47.8,2-56.7,24.4c-6.6,16.4-2.4,34.5,9.1,46.4l44.1-18.9
	c-0.6-1.8-0.5-3.7,0.2-5.5c0.8-2,2.3-3.6,4.3-4.4c2-0.9,4.2-0.9,6.2-0.1c2,0.8,3.6,2.3,4.4,4.3s0.9,4.2,0.1,6.2
	c-0.8,2-2.3,3.6-4.3,4.4c-1,0.4-2.1,0.7-3.2,0.7c-1,0-2-0.2-3-0.6c-1.8-0.7-3.2-2-4.1-3.6L13.6,75.4c4,3.8,8.7,6.9,14.1,9.1
	c22.4,8.9,47.8-2,56.7-24.4C90.8,44.2,87.1,26.7,76.4,14.7"/>
<path style="&st1;" d="M76.4,14.7L31.7,33.9c0.6,1.8,0.5,3.7-0.2,5.5c-0.8,2-2.3,3.6-4.3,4.4c-1,0.4-2.1,0.7-3.2,0.7
	c-1,0-2-0.2-3-0.6c-2-0.8-3.6-2.3-4.4-4.3c-0.9-2-0.9-4.2-0.1-6.2c0.8-2,2.3-3.6,4.3-4.4c2-0.9,4.2-0.9,6.2-0.1
	c1.8,0.7,3.2,2,4.1,3.6l44.1-19C71.1,9.2,66,5.7,60.1,3.4c-22.4-8.9-47.8,2-56.7,24.4c-6.6,16.4-2.4,34.5,9.1,46.4l44.1-18.9
	c-0.6-1.8-0.5-3.7,0.2-5.5c0.8-2,2.3-3.6,4.3-4.4c2-0.9,4.2-0.9,6.2-0.1c2,0.8,3.6,2.3,4.4,4.3s0.9,4.2,0.1,6.2
	c-0.8,2-2.3,3.6-4.3,4.4c-1,0.4-2.1,0.7-3.2,0.7c-1,0-2-0.2-3-0.6c-1.8-0.7-3.2-2-4.1-3.6L13.6,75.4c4,3.8,8.7,6.9,14.1,9.1
	c22.4,8.9,47.8-2,56.7-24.4C90.8,44.2,87.1,26.7,76.4,14.7"/>
<path style="&st2;" d="M26.4,30.4c-0.8-0.3-1.6-0.5-2.4-0.5c-0.9,0-1.7,0.2-2.6,0.5c-1.6,0.7-2.8,1.9-3.5,3.5
	c-0.6,1.6-0.6,3.4,0.1,5c0.7,1.6,1.9,2.8,3.5,3.5c1.6,0.6,3.4,0.6,5-0.1c1.6-0.7,2.8-1.9,3.5-3.5c0.6-1.6,0.6-3.4-0.1-5
	C29.3,32.2,28,31,26.4,30.4"/>
<path style="&st1;" d="M26.4,30.4c-0.8-0.3-1.6-0.5-2.4-0.5c-0.9,0-1.7,0.2-2.6,0.5c-1.6,0.7-2.8,1.9-3.5,3.5
	c-0.6,1.6-0.6,3.4,0.1,5c0.7,1.6,1.9,2.8,3.5,3.5c1.6,0.6,3.4,0.6,5-0.1c1.6-0.7,2.8-1.9,3.5-3.5c0.6-1.6,0.6-3.4-0.1-5
	C29.3,32.2,28,31,26.4,30.4"/>
<path style="&st3;" d="M122.5,32.7c0-1.7,0.9-2.5,2.5-2.5h2.1c1.6,0,2.5,0.8,2.5,2.5v3.5c0,1.2-0.2,2.2-0.2,2.2h0.2
	c1.5-3.4,6-9.2,14.3-9.2c8.9,0,12.9,5,12.9,15v22.4c0,1.7-0.8,2.5-2.5,2.5H152c-1.6,0-2.5-0.8-2.5-2.5V45.9c0-5.5-1-9.8-7.1-9.8
	c-7.3,0-12.6,6.3-12.6,14.4v16.1c0,1.7-0.8,2.5-2.5,2.5H125c-1.6,0-2.5-0.8-2.5-2.5V32.7z"/>
<path style="&st3;" d="M166.5,36.6h-2.4c-1.6,0-2.5-0.9-2.5-2.5v-1c0-1.6,0.9-2.5,2.5-2.5h2.4v-1.8c0-12.3,9.8-14.3,13.7-14.3h0.9
	c1.6,0,2.5,0.9,2.5,2.5v1.5c0,1.7-0.9,2.4-2.6,2.5c-2.8,0.2-7.2,0.8-7.2,8.1v1.5h6.5c1.6,0,2.5,0.9,2.5,2.5v1c0,1.6-0.9,2.5-2.5,2.5
	h-6.5v30c0,1.7-0.8,2.5-2.5,2.5H169c-1.6,0-2.5-0.9-2.5-2.5V36.6z"/>
<path style="&st3;" d="M204.4,29.2c11.3,0,20.4,8.6,20.4,20.4c0,11.9-9.1,20.5-20.4,20.5c-11.3,0-20.3-8.6-20.3-20.5
	C184.1,37.8,193.1,29.2,204.4,29.2 M204.4,63.6c7.2,0,13-5.9,13-14c0-8.1-5.8-13.9-13-13.9c-7.1,0-13,5.8-13,13.9
	C191.4,57.7,197.3,63.6,204.4,63.6"/>
<path style="&st3;" d="M229.2,62.4l0.7-1.1c1-1.3,1.9-1.4,3.4-0.5c1.7,1.2,4.9,3.2,9.3,3.2c3.7,0,6.4-1.9,6.4-5.2
	c0-7.6-19.5-5.1-19.5-18.3c0-7.4,6.3-11.3,13.7-11.3c5.2,0,8.7,1.9,10.5,3c1.3,0.7,1.6,2,0.8,3.4l-0.7,1.2c-0.7,1.4-1.9,1.5-3.3,0.8
	c-1.6-0.9-4.1-2.2-7.7-2.2c-3.6,0-6.3,1.6-6.3,4.9c0,7.8,19.5,5,19.5,18.3c0,6.6-5.5,11.5-13.6,11.5c-6.3,0-10.6-2.6-12.7-4.2
	C228.5,65,228.4,63.7,229.2,62.4"/>
<path style="&st3;" d="M264.3,36.6h-2.6c-1.6,0-2.4-0.9-2.4-2.5v-1c0-1.6,0.8-2.5,2.5-2.5h2.7V22c0-1.7,0.9-2.5,2.5-2.5h2.2
	c1.6,0,2.5,0.8,2.5,2.5v8.6h6.6c1.6,0,2.5,0.9,2.5,2.5v1c0,1.6-0.8,2.5-2.4,2.5h-6.6V54c0,7.4,4.4,8.6,7.2,8.8
	c1.9,0.2,2.6,0.8,2.6,2.5v1.6c0,1.8-1,2.5-3,2.5c-7.5,0-14-4.5-14-14.3V36.6z"/>
<path style="&st3;" d="M286.6,32.7c0-1.7,0.9-2.5,2.5-2.5h2.1c1.6,0,2.5,0.8,2.5,2.5v4.5c0,1.6-0.2,2.9-0.2,2.9h0.1
	c1.6-5.2,5.9-10.3,11.6-10.3c1.7,0,2.4,0.9,2.4,2.5v2.2c0,1.7-1,2.5-2.7,2.5c-7.4,0-11,8.3-11,16v13.6c0,1.7-0.8,2.5-2.5,2.5h-2.3
	c-1.6,0-2.5-0.8-2.5-2.5V32.7z"/>
<path style="&st3;" d="M327,29.2c10.5,0,16.3,7.7,16.3,18.6c0,1.4-1,2.6-2.5,2.6h-25.2c0.4,8.5,6.3,13.2,13.1,13.2
	c4.1,0,7.3-1.8,9-3.1c1.4-0.8,2.5-0.6,3.4,0.8l0.7,1.2c0.7,1.3,0.5,2.6-0.7,3.4c-2.2,1.6-6.7,4.2-12.8,4.2c-11.9,0-20-8.9-20-20.4
	C308.1,37.2,316.2,29.2,327,29.2 M336,45.5c-0.2-6.9-4.2-10.4-9.2-10.4c-5.5,0-10,3.9-11,10.4H336z"/>
<path style="&st3;" d="M351.3,36.6h-2.6c-1.6,0-2.4-0.9-2.4-2.5v-1c0-1.6,0.8-2.5,2.5-2.5h2.7V22c0-1.7,0.9-2.5,2.5-2.5h2.2
	c1.6,0,2.5,0.8,2.5,2.5v8.6h6.6c1.6,0,2.5,0.9,2.5,2.5v1c0,1.6-0.8,2.5-2.4,2.5h-6.6V54c0,7.4,4.4,8.6,7.2,8.8
	c1.9,0.2,2.6,0.8,2.6,2.5v1.6c0,1.8-1,2.5-3,2.5c-7.5,0-14-4.5-14-14.3V36.6z"/>
<path style="&st3;" d="M390.8,29.2c6.3,0,10.5,2.5,12.5,4.2c1.3,0.9,1.3,2.2,0.5,3.5L403,38c-0.9,1.4-1.9,1.5-3.4,0.6
	c-1.6-1.2-4.5-2.9-8.4-2.9c-7.6,0-13.1,5.9-13.1,13.9c0,7.9,5.5,14,13.3,14c4.6,0,7.8-2.2,9.6-3.5c1.3-0.9,2.5-0.8,3.4,0.7l0.6,1.2
	c0.7,1.3,0.5,2.5-0.7,3.4c-2.1,1.8-6.6,4.8-13.4,4.8c-11.9,0-20.2-8.7-20.2-20.4C370.7,38.1,379.1,29.2,390.8,29.2"/>
<path style="&st3;" d="M411.4,17.2c0-1.7,0.8-2.5,2.5-2.5h2.3c1.6,0,2.4,0.8,2.4,2.5v17.7c0,1.9-0.2,3.2-0.2,3.2h0.1
	c1.6-3.8,6.6-8.9,14.1-8.9c8.9,0,13,5,13,15v22.4c0,1.7-0.9,2.5-2.5,2.5h-2.3c-1.6,0-2.5-0.8-2.5-2.5V45.9c0-5.5-1.1-9.8-7.2-9.8
	c-7.2,0-12.6,6.2-12.6,14.6v16c0,1.7-0.8,2.5-2.4,2.5h-2.3c-1.6,0-2.5-0.8-2.5-2.5V17.2z"/>
<path style="&st3;" d="M106.3,32.5c0-1.7,0.9-2.5,2.5-2.5h2.3c1.6,0,2.5,0.8,2.5,2.5v33.9c0,1.7-0.8,2.5-2.5,2.5h-2.3
	c-1.6,0-2.5-0.8-2.5-2.5V32.5z M106.3,19.6v-2.5c0-1.7,0.8-2.5,2.5-2.5h2.5c1.6,0,2.5,0.8,2.5,2.5v2.5c0,1.6-0.9,2.5-2.5,2.5h-2.5
	C107.1,22.2,106.3,21.3,106.3,19.6"/>
</svg>
