<?xml version="1.0" encoding="utf-8"?>
<!-- Generator: Adobe Illustrator 15.0.0, SVG Export Plug-In . SVG Version: 6.00 Build 0)  -->
<!DOCTYPE svg PUBLIC "-//W3C//DTD SVG 1.1//EN" "http://www.w3.org/Graphics/SVG/1.1/DTD/svg11.dtd">
<svg version="1.1" id="Isolation_Mode" xmlns="http://www.w3.org/2000/svg" xmlns:xlink="http://www.w3.org/1999/xlink" x="0px"
	 y="0px" width="160.522px" height="33.333px" viewBox="0 0 160.522 33.333" enable-background="new 0 0 160.522 33.333"
	 xml:space="preserve">
<g>
	<g>
		<path fill="#454545" d="M56.672,12.128c1.099,1.394,1.648,3.19,1.648,5.393c0,2.282-0.542,4.174-1.626,5.675
			s-2.597,2.251-4.539,2.251c-1.22,0-2.199-0.242-2.94-0.728c-0.442-0.287-0.921-0.791-1.436-1.51v1.847h-3.788V5.213h3.842v7.063
			c0.488-0.683,1.026-1.204,1.614-1.563c0.696-0.449,1.583-0.674,2.659-0.674C54.051,10.039,55.573,10.735,56.672,12.128z
			 M53.461,21.079c0.553-0.8,0.829-1.852,0.829-3.154c0-1.043-0.137-1.905-0.408-2.588c-0.517-1.295-1.468-1.941-2.854-1.941
			c-1.405,0-2.37,0.634-2.896,1.9c-0.271,0.674-0.408,1.546-0.408,2.615c0,1.259,0.281,2.301,0.843,3.128
			c0.563,0.826,1.418,1.239,2.569,1.239C52.133,22.278,52.908,21.879,53.461,21.079z"/>
		<path fill="#454545" d="M64.938,8.61h-3.896V5.064h3.896V8.61z M61.043,10.362h3.896v14.693h-3.896V10.362z"/>
		<path fill="#454545" d="M75.929,10.349c0.934,0.387,1.688,1.097,2.262,2.13v-2.116h3.747v13.938c0,1.896-0.318,3.325-0.957,4.287
			c-1.096,1.653-3.199,2.479-6.309,2.479c-1.878,0-3.41-0.368-4.597-1.104c-1.186-0.737-1.842-1.839-1.968-3.303h4.179
			c0.107,0.449,0.283,0.772,0.525,0.97c0.414,0.351,1.11,0.526,2.09,0.526c1.384,0,2.31-0.463,2.776-1.389
			c0.306-0.593,0.459-1.591,0.459-2.992v-0.944c-0.369,0.63-0.764,1.102-1.187,1.416c-0.764,0.584-1.757,0.876-2.979,0.876
			c-1.887,0-3.395-0.663-4.522-1.988s-1.691-3.121-1.691-5.386c0-2.184,0.543-4.019,1.629-5.506s2.625-2.231,4.618-2.231
			C74.739,10.012,75.381,10.124,75.929,10.349z M77.237,20.884c0.617-0.679,0.926-1.76,0.926-3.242c0-1.393-0.293-2.453-0.879-3.182
			c-0.586-0.728-1.371-1.092-2.355-1.092c-1.343,0-2.269,0.634-2.779,1.901c-0.269,0.674-0.402,1.505-0.402,2.493
			c0,0.854,0.143,1.613,0.43,2.278c0.519,1.24,1.449,1.86,2.792,1.86C75.863,21.901,76.619,21.563,77.237,20.884z"/>
		<path fill="#454545" d="M85.308,10.686h2.372V12.6c0.487-0.655,1.019-1.163,1.596-1.522c0.819-0.539,1.783-0.81,2.892-0.81
			c1.64,0,3.032,0.627,4.177,1.881c1.144,1.254,1.716,3.045,1.716,5.372c0,3.146-0.825,5.392-2.477,6.74
			c-1.046,0.854-2.265,1.28-3.653,1.28c-1.092,0-2.008-0.238-2.748-0.715c-0.433-0.27-0.915-0.732-1.447-1.388v7.373h-2.427V10.686z
			 M94.437,22.002c0.753-0.947,1.13-2.365,1.13-4.253c0-1.149-0.167-2.139-0.501-2.965c-0.631-1.591-1.785-2.387-3.463-2.387
			c-1.686,0-2.84,0.841-3.462,2.521c-0.334,0.898-0.501,2.04-0.501,3.424c0,1.114,0.167,2.063,0.501,2.844
			c0.631,1.492,1.785,2.238,3.462,2.238C92.739,23.425,93.684,22.95,94.437,22.002z"/>
		<path fill="#454545" d="M108.602,16.318c0.557-0.071,0.93-0.305,1.118-0.699c0.107-0.217,0.162-0.528,0.162-0.934
			c0-0.83-0.294-1.433-0.882-1.807c-0.587-0.375-1.428-0.562-2.522-0.562c-1.264,0-2.161,0.343-2.69,1.029
			c-0.296,0.38-0.488,0.944-0.578,1.693h-2.265c0.045-1.784,0.621-3.026,1.73-3.725c1.108-0.698,2.394-1.048,3.856-1.048
			c1.697,0,3.075,0.324,4.134,0.971c1.051,0.647,1.575,1.654,1.575,3.021v8.317c0,0.252,0.052,0.454,0.155,0.606
			s0.321,0.229,0.654,0.229c0.107,0,0.229-0.007,0.363-0.021s0.278-0.033,0.432-0.061v1.793c-0.378,0.107-0.665,0.175-0.862,0.202
			c-0.198,0.027-0.468,0.04-0.81,0.04c-0.836,0-1.442-0.296-1.819-0.889c-0.198-0.314-0.337-0.76-0.418-1.335
			c-0.494,0.647-1.204,1.209-2.13,1.686c-0.926,0.476-1.946,0.714-3.06,0.714c-1.34,0-2.434-0.406-3.283-1.219
			c-0.849-0.812-1.273-1.828-1.273-3.049c0-1.338,0.418-2.374,1.254-3.11c0.835-0.736,1.932-1.189,3.289-1.36L108.602,16.318z
			 M103.492,22.873c0.512,0.404,1.118,0.605,1.819,0.605c0.854,0,1.681-0.197,2.48-0.592c1.348-0.655,2.022-1.728,2.022-3.217
			v-1.951c-0.297,0.188-0.678,0.347-1.144,0.473c-0.467,0.127-0.924,0.217-1.372,0.271l-1.467,0.188
			c-0.879,0.116-1.54,0.3-1.982,0.552c-0.751,0.421-1.126,1.094-1.126,2.017C102.724,21.918,102.979,22.47,103.492,22.873z"/>
		<path fill="#454545" d="M116.217,10.618h2.305v2.049c0.684-0.844,1.407-1.451,2.171-1.819s1.613-0.553,2.548-0.553
			c2.049,0,3.433,0.715,4.151,2.144c0.396,0.781,0.594,1.9,0.594,3.356v9.261h-2.467v-9.099c0-0.881-0.131-1.591-0.392-2.13
			c-0.431-0.898-1.213-1.349-2.346-1.349c-0.575,0-1.047,0.059-1.415,0.176c-0.665,0.197-1.249,0.593-1.752,1.186
			c-0.405,0.477-0.668,0.969-0.789,1.477s-0.182,1.233-0.182,2.177v7.563h-2.427V10.618z"/>
		<path fill="#454545" d="M139.503,11.063c0.43,0.27,0.918,0.741,1.464,1.415V5.186h2.332v19.87h-2.184v-2.009
			c-0.564,0.89-1.231,1.532-2.001,1.928s-1.651,0.594-2.646,0.594c-1.603,0-2.99-0.677-4.163-2.029s-1.759-3.152-1.759-5.398
			c0-2.104,0.535-3.925,1.604-5.467c1.07-1.541,2.599-2.312,4.586-2.312C137.838,10.362,138.76,10.596,139.503,11.063z
			 M134.087,21.888c0.653,1.043,1.699,1.563,3.139,1.563c1.117,0,2.036-0.482,2.756-1.449c0.72-0.966,1.08-2.352,1.08-4.158
			c0-1.824-0.371-3.175-1.113-4.051s-1.659-1.314-2.75-1.314c-1.216,0-2.201,0.468-2.957,1.402s-1.133,2.31-1.133,4.125
			C133.108,19.552,133.435,20.846,134.087,21.888z"/>
		<path fill="#454545" d="M154.663,16.318c0.557-0.071,0.93-0.305,1.118-0.699c0.107-0.217,0.162-0.528,0.162-0.934
			c0-0.83-0.294-1.433-0.882-1.807c-0.587-0.375-1.428-0.562-2.522-0.562c-1.264,0-2.161,0.343-2.69,1.029
			c-0.296,0.38-0.488,0.944-0.578,1.693h-2.265c0.045-1.784,0.621-3.026,1.73-3.725c1.108-0.698,2.394-1.048,3.856-1.048
			c1.697,0,3.075,0.324,4.134,0.971c1.051,0.647,1.575,1.654,1.575,3.021v8.317c0,0.252,0.052,0.454,0.155,0.606
			s0.321,0.229,0.654,0.229c0.107,0,0.229-0.007,0.363-0.021s0.278-0.033,0.432-0.061v1.793c-0.378,0.107-0.665,0.175-0.862,0.202
			c-0.198,0.027-0.468,0.04-0.81,0.04c-0.836,0-1.442-0.296-1.819-0.889c-0.198-0.314-0.337-0.76-0.418-1.335
			c-0.494,0.647-1.204,1.209-2.13,1.686c-0.926,0.476-1.946,0.714-3.06,0.714c-1.34,0-2.434-0.406-3.283-1.219
			c-0.849-0.812-1.273-1.828-1.273-3.049c0-1.338,0.418-2.374,1.254-3.11c0.835-0.736,1.932-1.189,3.289-1.36L154.663,16.318z
			 M149.554,22.873c0.512,0.404,1.118,0.605,1.819,0.605c0.854,0,1.681-0.197,2.48-0.592c1.348-0.655,2.022-1.728,2.022-3.217
			v-1.951c-0.297,0.188-0.678,0.347-1.144,0.473c-0.467,0.127-0.924,0.217-1.372,0.271l-1.467,0.188
			c-0.879,0.116-1.54,0.3-1.982,0.552c-0.751,0.421-1.126,1.094-1.126,2.017C148.785,21.918,149.041,22.47,149.554,22.873z"/>
	</g>
	<g>
		<path fill="#FFFFFF" d="M27.093,23.9c-2.993-0.354-4.489-2.231-4.759-2.604c-0.594-0.82-1.266-2.285-1.842-3.609
			c-0.174-0.4-0.793-0.474-1.02-0.487l-0.085-0.002c-0.106,0.001-0.904,0.021-1.108,0.489c-0.577,1.323-1.247,2.787-1.842,3.609
			c-0.27,0.373-1.767,2.251-4.759,2.604c-0.521,0.063-1.072,0.093-1.643,0.093c-1.249,0-2.484-0.146-3.48-0.396l1.02,4.118
			l8.484,3.496l3.155,0.381l3.133-0.381l8.484-3.496l0.998-4.029c-0.921,0.193-2.003,0.307-3.096,0.307
			C28.165,23.993,27.612,23.963,27.093,23.9z M23.066,29.22h-7.765V28.4h3.472v-1.736c-0.244-0.038-0.486-0.079-0.729-0.126
			c-0.336-0.064-0.67-0.134-0.999-0.226c-0.297-0.081-0.609-0.172-0.876-0.331c-0.483-0.291-0.848-0.852-0.552-1.405
			c0.141-0.262,0.392-0.505,0.672-0.612c0.317-0.122,0.682-0.138,1.019-0.15c-0.191,0.007,0.129,0,0.034-0.001
			c-0.007,0-0.013,0-0.017,0c0.007,0,0.011,0,0.017,0c0.351,0,0.699,0.009,1.051,0.032c0.313,0.021,0.634,0.091,0.945,0.055
			c0.678-0.077,1.374-0.123,2.056-0.064c0.307,0.027,0.646,0.064,0.903,0.25c0.239,0.174,0.453,0.409,0.529,0.701
			c0.149,0.571-0.335,1.068-0.814,1.288c-0.6,0.276-1.292,0.395-1.938,0.508c-0.16,0.028-0.321,0.055-0.482,0.081V28.4h3.474V29.22z
			"/>
		<path fill="#FFFFFF" d="M33.411,14.493c-0.424-0.13-0.981-0.23-1.732-0.289c-0.896-0.068-2.069-0.075-3.628,0.002
			c0,0-2.455,0.215-3.894,0.713c-0.781,0.271-1.754,0.688-1.983,1.41s-0.05,2.313,0.311,3.164c0.361,0.853,1.297,1.992,2.084,2.524
			c0.728,0.494,2.127,1.103,4.049,1.091c1.186-0.007,2.436-0.121,3.473-0.471c0.443-0.149,0.849-0.341,1.192-0.587
			c0.333-0.238,0.601-0.521,0.818-0.825c0.532-0.746,0.756-1.633,0.861-2.389c0.147-1.065,0.313-2.886-0.312-3.591
			C34.396,14.958,34.056,14.692,33.411,14.493z"/>
		<path fill="#FFFFFF" d="M14.204,22.018c0.786-0.532,1.722-1.672,2.081-2.524c0.362-0.852,0.542-2.442,0.312-3.164
			c-0.229-0.722-1.201-1.14-1.983-1.41c-1.438-0.498-3.894-0.713-3.894-0.713c-1.78-0.089-3.06-0.066-3.996,0.031
			c-0.795,0.084-1.345,0.223-1.742,0.396c-0.41,0.176-0.661,0.388-0.86,0.613c-0.624,0.705-0.46,2.525-0.313,3.591
			c0.082,0.588,0.236,1.255,0.55,1.873c0.255,0.502,0.617,0.974,1.132,1.341c0.235,0.169,0.503,0.312,0.788,0.435
			c1.106,0.469,2.531,0.615,3.876,0.623C12.075,23.12,13.475,22.512,14.204,22.018z"/>
		<path fill="#FFFFFF" d="M7.839,12.982c1.512,0.012,3.034,0.118,4.552,0.321c0.845,0.113,1.687,0.254,2.524,0.425
			c0.682,0.147,1.228,0.283,1.71,0.403c1.066,0.267,1.77,0.441,2.764,0.443c0.991-0.002,1.693-0.178,2.758-0.443
			c0.482-0.12,1.028-0.256,1.706-0.402c0.744-0.153,1.49-0.278,2.239-0.385c1.489-0.211,2.983-0.332,4.469-0.357
			c0.206-0.004,0.414-0.008,0.621-0.008c0.113,0,0.226,0.001,0.337,0.002l-0.082-0.617l-0.04-0.125l-1.897-5.679l-4.744-0.929
			l-5.54-1.082V4.547h-0.004c0,0-0.002,0-0.007,0.001c-0.005-0.001-0.008-0.001-0.008-0.001c-0.001,0-0.002,0-0.004,0V4.55
			c-0.208,0.023-2.95,0.56-5.551,1.073c-2.428,0.478-4.733,0.938-4.733,0.938l-1.897,5.679l-0.042,0.125l-0.081,0.623
			c0.228-0.005,0.462-0.008,0.701-0.008C7.673,12.979,7.756,12.982,7.839,12.982z"/>
		<path fill="#454545" d="M37.412,13.61c-0.019-0.006-1.551-0.41-4.147-0.567l-0.145-1.396l-0.309-0.926l1.843-1.975
			c1.674-1.794,1.576-4.604-0.218-6.277l-0.351-0.328c-1.793-1.673-4.604-1.575-6.277,0.218l-1.588,1.702l-7.004-1.465V2.594h-0.005
			c0,0-0.003,0-0.008,0.001c-0.006-0.001-0.009-0.001-0.009-0.001c-0.001,0-0.004,0-0.004,0v0.003
			c-0.257,0.029-3.872,0.789-7.016,1.454l-1.578-1.691C8.925,0.566,6.114,0.469,4.321,2.142L3.97,2.47
			C2.177,4.144,2.079,6.953,3.752,8.747l1.844,1.975l-0.31,0.926l-0.146,1.419c-2.373,0.173-3.765,0.538-3.781,0.544
			c-0.245,0.069-0.346,0.317-0.337,0.533l0.293,2.098l0.126,0.067c0.403,0.214,0.506,0.537,1.053,2.449l0.097,0.337
			c0.596,2.075,1.094,2.985,2.079,3.692l1.677,5.783l9.281,3.794l3.589,0.364l3.563-0.364l9.65-3.794l1.321-5.552
			c0.015-0.009,0.031-0.018,0.046-0.027c1.195-0.744,1.73-1.618,2.383-3.896l0.098-0.342c0.546-1.908,0.648-2.23,1.052-2.444
			l0.126-0.067l0.29-2.07l0.002-0.027C37.756,13.928,37.656,13.68,37.412,13.61z M6.969,12.364l0.042-0.125l1.897-5.679
			c0,0,2.306-0.46,4.733-0.938c2.601-0.514,5.343-1.05,5.551-1.073V4.547c0.002,0,0.003,0,0.004,0c0,0,0.003,0,0.008,0.001
			c0.005-0.001,0.007-0.001,0.007-0.001h0.004V4.55l5.54,1.082l4.744,0.929l1.897,5.679l0.04,0.125l0.082,0.617
			c-0.111-0.001-0.224-0.002-0.337-0.002c-0.207,0-0.415,0.004-0.621,0.008c-1.485,0.025-2.979,0.146-4.469,0.357
			c-0.749,0.106-1.495,0.231-2.239,0.385c-0.678,0.146-1.224,0.282-1.706,0.402c-1.064,0.266-1.767,0.441-2.758,0.443
			c-0.994-0.002-1.697-0.177-2.764-0.443c-0.482-0.12-1.028-0.256-1.71-0.403c-0.838-0.171-1.68-0.312-2.524-0.425
			c-1.518-0.203-3.04-0.31-4.552-0.321c-0.083,0-0.166-0.003-0.25-0.003c-0.239,0-0.474,0.003-0.701,0.008L6.969,12.364z
			 M6.278,22.485c-0.285-0.123-0.553-0.266-0.788-0.435c-0.515-0.367-0.877-0.839-1.132-1.341c-0.313-0.618-0.468-1.285-0.55-1.873
			c-0.147-1.065-0.312-2.886,0.313-3.591c0.199-0.226,0.45-0.438,0.86-0.613c0.397-0.173,0.947-0.312,1.742-0.396
			c0.937-0.098,2.216-0.12,3.996-0.031c0,0,2.455,0.215,3.894,0.713c0.782,0.271,1.755,0.688,1.983,1.41
			c0.23,0.722,0.051,2.313-0.312,3.164c-0.359,0.853-1.295,1.992-2.081,2.524c-0.729,0.494-2.129,1.103-4.05,1.091
			C8.81,23.101,7.385,22.954,6.278,22.485z M30.832,27.716l-8.484,3.496l-3.133,0.381l-3.155-0.381l-8.484-3.496l-1.02-4.118
			c0.996,0.249,2.231,0.396,3.48,0.396c0.57,0,1.122-0.03,1.643-0.093c2.992-0.354,4.489-2.231,4.759-2.604
			c0.595-0.822,1.265-2.286,1.842-3.609c0.204-0.468,1.002-0.488,1.108-0.489l0.085,0.002c0.227,0.014,0.846,0.087,1.02,0.487
			c0.576,1.324,1.248,2.789,1.842,3.609c0.27,0.373,1.766,2.251,4.759,2.604c0.52,0.063,1.072,0.093,1.642,0.093
			c1.093,0,2.175-0.113,3.096-0.307L30.832,27.716z M34.962,18.837c-0.105,0.756-0.329,1.643-0.861,2.389
			c-0.218,0.305-0.485,0.587-0.818,0.825c-0.344,0.246-0.749,0.438-1.192,0.587c-1.037,0.35-2.287,0.464-3.473,0.471
			c-1.922,0.012-3.321-0.597-4.049-1.091c-0.787-0.532-1.723-1.672-2.084-2.524c-0.36-0.852-0.54-2.442-0.311-3.164
			s1.202-1.14,1.983-1.41c1.438-0.498,3.894-0.713,3.894-0.713c1.559-0.077,2.731-0.07,3.628-0.002
			c0.751,0.059,1.309,0.159,1.732,0.289c0.645,0.199,0.984,0.465,1.239,0.753C35.274,15.951,35.109,17.771,34.962,18.837z"/>
		<path fill="#454545" d="M19.593,26.663c0.161-0.026,0.322-0.053,0.482-0.081c0.646-0.113,1.338-0.231,1.938-0.508
			c0.479-0.22,0.964-0.717,0.814-1.288c-0.076-0.292-0.29-0.527-0.529-0.701c-0.257-0.186-0.597-0.223-0.903-0.25
			c-0.682-0.059-1.378-0.013-2.056,0.064c-0.312,0.036-0.632-0.033-0.945-0.055c-0.352-0.023-0.7-0.032-1.051-0.032
			c0.095,0.001-0.226,0.008-0.034,0.001c-0.337,0.013-0.701,0.028-1.019,0.15c-0.28,0.107-0.531,0.351-0.672,0.612
			c-0.296,0.554,0.068,1.114,0.552,1.405c0.267,0.159,0.579,0.25,0.876,0.331c0.329,0.092,0.663,0.161,0.999,0.226
			c0.242,0.047,0.484,0.088,0.729,0.126V28.4h-3.472v0.819h7.765V28.4h-3.474V26.663z"/>
		<path fill="#454545" d="M17.343,23.813c-0.006,0-0.01,0-0.017,0C17.33,23.813,17.336,23.813,17.343,23.813z"/>
	</g>
</g>
</svg>
