<?xml version="1.0" encoding="utf-8"?>
<!-- Generator: Adobe Illustrator 21.0.2, SVG Export Plug-In . SVG Version: 6.00 Build 0)  -->
<svg version="1.1" id="Layer_1" xmlns="http://www.w3.org/2000/svg" xmlns:xlink="http://www.w3.org/1999/xlink" x="0px" y="0px"
	 viewBox="0 0 2221.4 1324.4" enable-background="new 0 0 2221.4 1324.4" xml:space="preserve">
<g>
	<g>
		<polygon fill="#B7B7BB" points="136,1211.3 136,1000.2 102.4,1000.2 102.4,966.3 207.1,966.3 207.1,1000.2 173.5,1000.2 
			173.5,1211.3 		"/>
		<polygon fill="#B7B7BB" points="356.9,966.3 356.9,1000.2 311,1000.2 311,1069.5 355.1,1069.5 355.1,1103.5 311,1103.5 
			311,1177.3 357.6,1177.3 357.6,1211.3 273.5,1211.3 273.5,966.3 		"/>
		<path fill="#B7B7BB" d="M538.2,1110.8v57.1c0,30.4-15,45.5-45.5,45.5h-18.6c-30.5,0-45.5-15-45.5-45.5v-158.2
			c0-30.5,15-45.5,45.5-45.5h18.2c30.4,0,45.1,14.7,45.1,45.2v50.1h-36.7v-48c0-9.8-4.5-14.3-14-14.3h-6.3
			c-9.8,0-14.4,4.5-14.4,14.3v154.7c0,9.8,4.5,14.3,14.4,14.3h7c9.5,0,14-4.6,14-14.3v-55.3L538.2,1110.8z"/>
		<polygon fill="#B7B7BB" points="684.4,1069.5 684.4,966.3 721.9,966.3 721.9,1211.3 684.4,1211.3 684.4,1103.5 648.4,1103.5 
			648.4,1211.3 610.9,1211.3 610.9,966.3 648.4,966.3 648.4,1069.5 		"/>
		<polygon fill="#B7B7BB" points="867.5,1211.3 829.3,1046.4 829.7,1089.5 829.7,1211.3 796.1,1211.3 796.1,966.3 839.8,966.3 
			874.8,1117.5 874.5,1076.5 874.5,966.3 908.1,966.3 908.1,1211.3 		"/>
		<path fill="#B7B7BB" d="M1047,964.2h-19.9c-30.5,0-45.5,15-45.5,45.5v158.2c0,30.4,15,45.5,45.5,45.5h19.9
			c30.4,0,45.5-15,45.5-45.5v-158.2C1092.5,979.2,1077.5,964.2,1047,964.2z M1055.1,1166.2c0,9.8-4.6,14.3-14,14.3h-7.7
			c-9.8,0-14.4-4.6-14.4-14.3v-154.7c0-9.8,4.5-14.3,14.4-14.3h7.7c9.4,0,14,4.5,14,14.3V1166.2z"/>
		<polygon fill="#B7B7BB" points="1203.5,966.3 1203.5,1177.3 1244.8,1177.3 1244.8,1211.3 1166,1211.3 1166,966.3 		"/>
		<path fill="#B7B7BB" d="M1375.7,964.2h-19.9c-30.4,0-45.5,15-45.5,45.5v158.2c0,30.4,15.1,45.5,45.5,45.5h19.9
			c30.4,0,45.5-15,45.5-45.5v-158.2C1421.2,979.2,1406.1,964.2,1375.7,964.2z M1383.7,1166.2c0,9.8-4.6,14.3-14,14.3h-7.7
			c-9.8,0-14.3-4.6-14.3-14.3v-154.7c0-9.8,4.6-14.3,14.3-14.3h7.7c9.4,0,14,4.5,14,14.3V1166.2z"/>
		<path fill="#B7B7BB" d="M1549,1109.8v-32.2h56v90.3c0,30.4-15.1,45.5-45.5,45.5h-19.9c-30.4,0-45.5-15-45.5-45.5v-158.2
			c0-30.5,15.1-45.5,45.5-45.5h19.6c30.4,0,45.2,15,45.2,45.2v39.6h-36.8v-37.5c0-9.8-4.6-14.3-14-14.3h-7.7
			c-9.8,0-14.3,4.5-14.3,14.3v154.7c0,9.8,4.6,14.3,14.3,14.3h8.4c9.8,0,14.3-4.6,14.3-14.3v-56.3L1549,1109.8z"/>
		<rect x="1678.4" y="966.3" fill="#B7B7BB" width="37.4" height="245"/>
		<polygon fill="#B7B7BB" points="1873.7,966.3 1873.7,1000.2 1827.9,1000.2 1827.9,1069.5 1872,1069.5 1872,1103.5 1827.9,1103.5 
			1827.9,1177.3 1874.4,1177.3 1874.4,1211.3 1790.4,1211.3 1790.4,966.3 		"/>
		<path fill="#B7B7BB" d="M2051.9,1128v39.9c0,30.4-15,45.5-45.5,45.5H1990c-30.4,0-45.2-15-45.2-45.2v-51.8h36.4v50.4
			c0,9.4,4.6,14,14.3,14h4.9c9.8,0,14.3-4.6,14.3-14v-33.6c0-10.2-3.5-14.7-10.5-20l-37.8-27.7c-16.8-11.9-21.7-23.4-21.7-42.3
			v-33.6c0-30.5,15.1-45.5,45.5-45.5h15.8c30.1,0,45.2,15,45.2,45.2v44.5h-36.8v-43.1c0-9.5-4.6-14-14-14h-4.6c-9.4,0-14,4.5-14,14
			v27.3c0,10.2,3.5,15,10.5,20l37.8,27.7C2046.6,1097.5,2051.9,1108,2051.9,1128z"/>
	</g>
	<g>
		<path fill="#323233" d="M198.7,582.7h37c22.7,0,33.6-10.9,33.6-34.4V400.4c0-23.5-10.9-34.4-33.6-34.4H108.8v-79h141.1
			c73.1,0,109.2,36.1,109.2,109.2v156.3c0,73.1-36.1,109.2-109.2,109.2h-51.2V875h-89.9V582.7H198.7z"/>
		<path fill="#323233" d="M668.7,675.1V875h-89.9V676.8c0-26-11.8-37.8-37.8-37.8h-40.3v236h-89.9V287h147.8
			c73.1,0,109.2,36.1,109.2,109.2v110.9c0,52.1-18.5,77.3-51.2,90.7C653.5,607.9,668.7,630.6,668.7,675.1z M544.3,366.8h-43.7v194
			H541c25.2,0,37-11.8,37-36.1V400.4C578,377.8,567,366.8,544.3,366.8z"/>
		<path fill="#323233" d="M928.7,287v81.5h-110v166.3h105.8v81.5H818.7v177.2h111.7V875H728.8V287L928.7,287z"/>
		<path fill="#323233" d="M1240.8,675.2v95.8c0,73.1-36.1,109.2-109.2,109.2h-39.5c-73.1,0-108.4-36.1-108.4-108.4V647.4h87.4v121
			c0,22.7,10.9,33.6,34.4,33.6h11.8c23.5,0,34.4-10.9,34.4-33.6v-80.7c0-24.4-8.4-35.3-25.2-47.9l-90.7-66.4
			c-40.3-28.5-52.1-56.3-52.1-101.6v-80.6c0-73.1,36.1-109.2,109.2-109.2h37.8c72.2,0,108.4,36.1,108.4,108.4v106.7H1151V393.8
			c0-22.7-10.9-33.6-33.6-33.6h-10.9c-22.7,0-33.6,10.9-33.6,33.6v65.5c0,24.4,8.4,36.1,25.2,47.9l90.7,66.4
			C1228.2,602.1,1240.8,627.3,1240.8,675.2z"/>
		<path fill="#323233" d="M1497.7,287v81.5h-110v166.3h105.8v81.5h-105.9v177.2h111.7V875h-201.6V287L1497.7,287z"/>
		<path fill="#323233" d="M1727.1,875l-91.6-395.6l0.8,103.3V875h-80.6V287h105l84,362.9l-0.8-98.3V287h80.6v588H1727.1z"/>
		<path fill="#323233" d="M1948.4,875V368.5h-80.6V287H2119v81.5h-80.6V875H1948.4z"/>
		<path fill="#EE7624" d="M118.8,401h70c5.5,0,10,4.5,10,10v129c0,5.5-4.5,10-10,10h-70c-5.5,0-10-4.5-10-10V411
			C108.8,405.5,113.3,401,118.8,401z"/>
	</g>
	<path fill="#EE7624" d="M108.8,191v-70c0-5.5,4.5-10,10-10h1990c5.5,0,10,4.5,10,10v70c0,5.5-4.5,10-10,10h-1990
		C113.3,201,108.8,196.6,108.8,191z"/>
</g>
</svg>
